<mxfile host="app.diagrams.net" modified="2024-02-20T19:24:33.037Z" agent="Mozilla/5.0 (X11; Ubuntu; Linux x86_64; rv:122.0) Gecko/20100101 Firefox/122.0" etag="5CQ5hkulpIvEH8gqYywr" version="21.3.0" type="device">
  <diagram name="Page-1" id="6op1dlVmpIDw2TwVQU0t">
    <mxGraphModel dx="1145" dy="644" grid="1" gridSize="10" guides="1" tooltips="1" connect="1" arrows="1" fold="1" page="1" pageScale="1" pageWidth="827" pageHeight="1169" math="0" shadow="0">
      <root>
        <mxCell id="0" />
        <mxCell id="1" parent="0" />
        <mxCell id="yovR8Kp7Z9_n9huCs-GN-1" value="Pi Pico" style="rounded=1;whiteSpace=wrap;html=1;" vertex="1" parent="1">
          <mxGeometry x="350" y="550" width="150" height="60" as="geometry" />
        </mxCell>
        <mxCell id="yovR8Kp7Z9_n9huCs-GN-2" value="DS3231" style="rounded=0;whiteSpace=wrap;html=1;" vertex="1" parent="1">
          <mxGeometry x="370" y="470" width="50" height="40" as="geometry" />
        </mxCell>
        <mxCell id="yovR8Kp7Z9_n9huCs-GN-3" value="DHT11" style="rounded=0;whiteSpace=wrap;html=1;" vertex="1" parent="1">
          <mxGeometry x="430" y="470" width="50" height="40" as="geometry" />
        </mxCell>
        <mxCell id="yovR8Kp7Z9_n9huCs-GN-4" value="SSD1306 OLED" style="rounded=0;whiteSpace=wrap;html=1;" vertex="1" parent="1">
          <mxGeometry x="364" y="640" width="50" height="40" as="geometry" />
        </mxCell>
        <mxCell id="yovR8Kp7Z9_n9huCs-GN-6" value="LED" style="rounded=0;whiteSpace=wrap;html=1;" vertex="1" parent="1">
          <mxGeometry x="430" y="640" width="50" height="40" as="geometry" />
        </mxCell>
        <mxCell id="yovR8Kp7Z9_n9huCs-GN-7" value="" style="endArrow=classic;html=1;rounded=0;entryX=0.66;entryY=-0.014;entryDx=0;entryDy=0;entryPerimeter=0;" edge="1" parent="1" target="yovR8Kp7Z9_n9huCs-GN-6">
          <mxGeometry width="50" height="50" relative="1" as="geometry">
            <mxPoint x="463" y="610" as="sourcePoint" />
            <mxPoint x="430" y="600" as="targetPoint" />
          </mxGeometry>
        </mxCell>
        <mxCell id="yovR8Kp7Z9_n9huCs-GN-17" value="&lt;div&gt;GPIO&lt;/div&gt;" style="edgeLabel;html=1;align=center;verticalAlign=middle;resizable=0;points=[];" vertex="1" connectable="0" parent="yovR8Kp7Z9_n9huCs-GN-7">
          <mxGeometry x="-0.5536" relative="1" as="geometry">
            <mxPoint as="offset" />
          </mxGeometry>
        </mxCell>
        <mxCell id="yovR8Kp7Z9_n9huCs-GN-8" value="" style="endArrow=classic;html=1;rounded=0;entryX=0.66;entryY=-0.014;entryDx=0;entryDy=0;entryPerimeter=0;" edge="1" parent="1">
          <mxGeometry width="50" height="50" relative="1" as="geometry">
            <mxPoint x="388.71" y="610" as="sourcePoint" />
            <mxPoint x="388.71" y="639" as="targetPoint" />
          </mxGeometry>
        </mxCell>
        <mxCell id="yovR8Kp7Z9_n9huCs-GN-14" value="I2C" style="edgeLabel;html=1;align=center;verticalAlign=middle;resizable=0;points=[];" vertex="1" connectable="0" parent="yovR8Kp7Z9_n9huCs-GN-8">
          <mxGeometry x="-0.468" relative="1" as="geometry">
            <mxPoint as="offset" />
          </mxGeometry>
        </mxCell>
        <mxCell id="yovR8Kp7Z9_n9huCs-GN-9" value="" style="endArrow=classic;html=1;rounded=0;exitX=0.426;exitY=0.979;exitDx=0;exitDy=0;exitPerimeter=0;entryX=0.277;entryY=0.005;entryDx=0;entryDy=0;entryPerimeter=0;" edge="1" parent="1" source="yovR8Kp7Z9_n9huCs-GN-2" target="yovR8Kp7Z9_n9huCs-GN-1">
          <mxGeometry width="50" height="50" relative="1" as="geometry">
            <mxPoint x="280" y="560" as="sourcePoint" />
            <mxPoint x="392" y="547" as="targetPoint" />
          </mxGeometry>
        </mxCell>
        <mxCell id="yovR8Kp7Z9_n9huCs-GN-15" value="I2C" style="edgeLabel;html=1;align=center;verticalAlign=middle;resizable=0;points=[];" vertex="1" connectable="0" parent="yovR8Kp7Z9_n9huCs-GN-9">
          <mxGeometry x="-0.4176" relative="1" as="geometry">
            <mxPoint as="offset" />
          </mxGeometry>
        </mxCell>
        <mxCell id="yovR8Kp7Z9_n9huCs-GN-10" value="" style="endArrow=classic;html=1;rounded=0;exitX=0.5;exitY=1;exitDx=0;exitDy=0;entryX=0.7;entryY=0.014;entryDx=0;entryDy=0;entryPerimeter=0;" edge="1" parent="1" source="yovR8Kp7Z9_n9huCs-GN-3" target="yovR8Kp7Z9_n9huCs-GN-1">
          <mxGeometry width="50" height="50" relative="1" as="geometry">
            <mxPoint x="380" y="650" as="sourcePoint" />
            <mxPoint x="430" y="600" as="targetPoint" />
            <Array as="points" />
          </mxGeometry>
        </mxCell>
        <mxCell id="yovR8Kp7Z9_n9huCs-GN-16" value="&lt;div&gt;GPIO&lt;/div&gt;" style="edgeLabel;html=1;align=center;verticalAlign=middle;resizable=0;points=[];" vertex="1" connectable="0" parent="yovR8Kp7Z9_n9huCs-GN-10">
          <mxGeometry x="-0.3983" y="-1" relative="1" as="geometry">
            <mxPoint as="offset" />
          </mxGeometry>
        </mxCell>
        <mxCell id="yovR8Kp7Z9_n9huCs-GN-11" value="" style="endArrow=none;dashed=1;html=1;dashPattern=1 3;strokeWidth=2;rounded=0;exitX=1;exitY=0.25;exitDx=0;exitDy=0;" edge="1" parent="1" source="yovR8Kp7Z9_n9huCs-GN-1">
          <mxGeometry width="50" height="50" relative="1" as="geometry">
            <mxPoint x="510" y="580" as="sourcePoint" />
            <mxPoint x="530" y="550" as="targetPoint" />
          </mxGeometry>
        </mxCell>
        <mxCell id="yovR8Kp7Z9_n9huCs-GN-12" value="Running FreeRTOS to control each component" style="ellipse;whiteSpace=wrap;html=1;" vertex="1" parent="1">
          <mxGeometry x="520" y="510" width="100" height="70" as="geometry" />
        </mxCell>
        <mxCell id="yovR8Kp7Z9_n9huCs-GN-13" value="Pi Pico FreeRTOS project" style="text;html=1;strokeColor=none;fillColor=none;align=center;verticalAlign=middle;whiteSpace=wrap;rounded=0;" vertex="1" parent="1">
          <mxGeometry x="240" y="420" width="380" height="30" as="geometry" />
        </mxCell>
        <mxCell id="yovR8Kp7Z9_n9huCs-GN-19" value="&lt;div&gt;Button&lt;/div&gt;" style="rounded=0;whiteSpace=wrap;html=1;" vertex="1" parent="1">
          <mxGeometry x="290" y="640" width="50" height="40" as="geometry" />
        </mxCell>
        <mxCell id="yovR8Kp7Z9_n9huCs-GN-20" value="" style="endArrow=classic;startArrow=classic;html=1;rounded=0;exitX=0.75;exitY=0;exitDx=0;exitDy=0;entryX=0;entryY=0.5;entryDx=0;entryDy=0;" edge="1" parent="1" source="yovR8Kp7Z9_n9huCs-GN-19" target="yovR8Kp7Z9_n9huCs-GN-1">
          <mxGeometry width="50" height="50" relative="1" as="geometry">
            <mxPoint x="240" y="640" as="sourcePoint" />
            <mxPoint x="300" y="590" as="targetPoint" />
            <Array as="points">
              <mxPoint x="328" y="580" />
            </Array>
          </mxGeometry>
        </mxCell>
        <mxCell id="yovR8Kp7Z9_n9huCs-GN-22" value="" style="endArrow=none;dashed=1;html=1;dashPattern=1 3;strokeWidth=2;rounded=0;" edge="1" parent="1" target="yovR8Kp7Z9_n9huCs-GN-23">
          <mxGeometry width="50" height="50" relative="1" as="geometry">
            <mxPoint x="330" y="600" as="sourcePoint" />
            <mxPoint x="270" y="590" as="targetPoint" />
          </mxGeometry>
        </mxCell>
        <mxCell id="yovR8Kp7Z9_n9huCs-GN-23" value="&lt;div&gt;Switch display between time and temperature&lt;/div&gt;" style="ellipse;whiteSpace=wrap;html=1;" vertex="1" parent="1">
          <mxGeometry x="160" y="530" width="100" height="70" as="geometry" />
        </mxCell>
      </root>
    </mxGraphModel>
  </diagram>
</mxfile>
